<mxfile host="app.diagrams.net" modified="2024-06-11T20:08:43.894Z" agent="Mozilla/5.0 (Windows NT 10.0; Win64; x64) AppleWebKit/537.36 (KHTML, like Gecko) Chrome/125.0.0.0 Safari/537.36" etag="p2SU2xe-Uz5uMdjKlLcj" version="24.4.3" type="device">
  <diagram name="1 oldal" id="I6EIijJL6Fo9-5fb3pwg">
    <mxGraphModel dx="2074" dy="1180" grid="1" gridSize="10" guides="1" tooltips="1" connect="1" arrows="1" fold="1" page="1" pageScale="1" pageWidth="827" pageHeight="1169" math="0" shadow="0">
      <root>
        <mxCell id="0" />
        <mxCell id="1" parent="0" />
        <mxCell id="Iwi7Kwx7fXE7Te46J2q1-1" value="service 1" style="rounded=0;whiteSpace=wrap;html=1;horizontal=1;verticalAlign=top;fillColor=#fff2cc;strokeColor=#d6b656;" vertex="1" parent="1">
          <mxGeometry x="90" y="110" width="440" height="130" as="geometry" />
        </mxCell>
        <mxCell id="Iwi7Kwx7fXE7Te46J2q1-2" style="edgeStyle=orthogonalEdgeStyle;rounded=0;orthogonalLoop=1;jettySize=auto;html=1;exitX=1;exitY=0.5;exitDx=0;exitDy=0;" edge="1" parent="1" source="Iwi7Kwx7fXE7Te46J2q1-3" target="Iwi7Kwx7fXE7Te46J2q1-5">
          <mxGeometry relative="1" as="geometry" />
        </mxCell>
        <mxCell id="Iwi7Kwx7fXE7Te46J2q1-3" value="Micrometer API" style="rounded=0;whiteSpace=wrap;html=1;fillColor=#ffe6cc;strokeColor=#d79b00;" vertex="1" parent="1">
          <mxGeometry x="100" y="145" width="120" height="60" as="geometry" />
        </mxCell>
        <mxCell id="Iwi7Kwx7fXE7Te46J2q1-4" style="edgeStyle=orthogonalEdgeStyle;rounded=0;orthogonalLoop=1;jettySize=auto;html=1;exitX=1;exitY=0.5;exitDx=0;exitDy=0;entryX=0;entryY=0.5;entryDx=0;entryDy=0;" edge="1" parent="1" source="Iwi7Kwx7fXE7Te46J2q1-5" target="Iwi7Kwx7fXE7Te46J2q1-7">
          <mxGeometry relative="1" as="geometry" />
        </mxCell>
        <mxCell id="Iwi7Kwx7fXE7Te46J2q1-5" value="micrometer-tracing-bridge-otel" style="rounded=0;whiteSpace=wrap;html=1;fillColor=#ffe6cc;strokeColor=#d79b00;" vertex="1" parent="1">
          <mxGeometry x="240" y="145" width="120" height="60" as="geometry" />
        </mxCell>
        <mxCell id="Iwi7Kwx7fXE7Te46J2q1-6" style="edgeStyle=orthogonalEdgeStyle;rounded=0;orthogonalLoop=1;jettySize=auto;html=1;exitX=1;exitY=0.5;exitDx=0;exitDy=0;entryX=0;entryY=0.5;entryDx=0;entryDy=0;" edge="1" parent="1" source="Iwi7Kwx7fXE7Te46J2q1-7" target="Iwi7Kwx7fXE7Te46J2q1-8">
          <mxGeometry relative="1" as="geometry" />
        </mxCell>
        <mxCell id="Iwi7Kwx7fXE7Te46J2q1-7" value="opentelemetry-exporter-otlp" style="rounded=0;whiteSpace=wrap;html=1;fillColor=#ffe6cc;strokeColor=#d79b00;" vertex="1" parent="1">
          <mxGeometry x="380" y="145" width="120" height="60" as="geometry" />
        </mxCell>
        <mxCell id="Iwi7Kwx7fXE7Te46J2q1-8" value="OpenTelemetry Collector" style="rounded=0;whiteSpace=wrap;html=1;horizontal=1;verticalAlign=top;fillColor=#fff2cc;strokeColor=#d6b656;" vertex="1" parent="1">
          <mxGeometry x="560" y="110" width="200" height="130" as="geometry" />
        </mxCell>
      </root>
    </mxGraphModel>
  </diagram>
</mxfile>
